<svg width="728" height="770" viewBox="0 0 728 770" fill="none" xmlns="http://www.w3.org/2000/svg">
<path d="M0.00390625 529.133C0.00390625 539.626 8.51062 548.133 19.0042 548.133H708.223C718.717 548.133 727.224 539.626 727.224 529.133V442.468C727.224 431.974 718.717 423.468 708.223 423.468L19.0043 423.467C8.51068 423.467 0.00390625 431.974 0.00390625 442.467V529.133ZM120.054 91.1471C120.054 101.641 111.547 110.147 101.053 110.147L19.0013 110.147C8.50769 110.147 0.000976562 118.654 0.000976562 129.148V393.577C0.000976562 404.07 8.50769 412.577 19.0013 412.577H105.667C116.16 412.577 124.667 404.07 124.667 393.577V143.666C124.667 133.173 133.174 124.666 143.667 124.666L583.557 124.666C594.051 124.666 602.558 133.173 602.558 143.666V393.457C602.558 403.95 611.064 412.457 621.558 412.457H708.223C718.717 412.457 727.224 403.95 727.224 393.457V129.027C727.224 118.533 718.717 110.026 708.223 110.026H626.176C615.683 110.026 607.176 101.52 607.176 91.026V19.0003C607.176 8.50673 598.669 0 588.175 0L139.054 0C128.56 0 120.054 8.50673 120.054 19.0003V91.1471Z" fill="#FBFF00"/>
<path d="M562.331 282.649C572.827 282.649 581.335 291.158 581.335 301.653V389.936C581.335 400.431 572.827 408.939 562.331 408.939H163.413C152.917 408.939 144.409 400.431 144.409 389.936V301.653C144.409 291.158 152.917 282.649 163.413 282.649H562.331Z" fill="black"/>
<path d="M306.724 612.448C306.724 622.943 315.232 631.451 325.728 631.451H399.978C410.473 631.451 418.982 622.943 418.982 612.448V579.974C418.982 569.479 427.49 560.971 437.985 560.971H524.264C534.76 560.971 543.268 569.479 543.268 579.974V750.447C543.268 760.942 534.76 769.45 524.264 769.45H437.985C427.49 769.45 418.982 760.942 418.982 750.447V714.602C418.982 704.107 410.473 695.599 399.978 695.599H325.728C315.232 695.599 306.724 704.107 306.724 714.602V750.447C306.724 760.942 298.216 769.45 287.72 769.45H201.442C190.947 769.45 182.439 760.942 182.439 750.447V695.608C182.439 695.603 182.434 695.599 182.429 695.599C182.424 695.599 182.419 695.594 182.419 695.589V669.548C182.419 669.542 182.424 669.538 182.429 669.538C182.434 669.538 182.439 669.534 182.439 669.528V657.521C182.439 657.515 182.434 657.511 182.429 657.511C182.424 657.511 182.419 657.506 182.419 657.501V631.461C182.419 631.456 182.424 631.451 182.429 631.451C182.434 631.451 182.439 631.447 182.439 631.441V579.974C182.439 569.479 190.947 560.971 201.442 560.971H287.72C298.216 560.971 306.724 569.479 306.724 579.974V612.448ZM306.724 663.524C306.724 666.846 309.416 669.538 312.738 669.538H412.968C416.289 669.538 418.982 666.846 418.982 663.524C418.982 660.203 416.289 657.511 412.968 657.511H312.738C309.416 657.511 306.724 660.203 306.724 663.524Z" fill="black"/>
<path d="M624.475 561.29H584.302C573.807 561.29 565.299 569.798 565.299 580.293L565.299 750.765C565.299 761.26 573.807 769.769 584.302 769.769H624.475C634.97 769.769 643.478 761.26 643.478 750.765L643.478 580.293C643.478 569.798 634.97 561.29 624.475 561.29Z" fill="black"/>
<path d="M59.176 561.29H19.0037C8.50823 561.29 -4.23434e-10 569.798 -4.0121e-10 580.293L0 750.765C0 761.26 8.50823 769.769 19.0037 769.769H59.176C69.6714 769.769 78.1796 761.26 78.1796 750.765L78.1796 580.293C78.1796 569.798 69.6714 561.29 59.176 561.29Z" fill="black"/>
<path d="M706.664 561.29H666.491C655.996 561.29 647.488 569.798 647.488 580.293L647.488 750.765C647.488 761.26 655.996 769.769 666.491 769.769H706.664C717.159 769.769 725.667 761.26 725.667 750.765L725.667 580.293C725.667 569.798 717.159 561.29 706.664 561.29Z" fill="black"/>
<path d="M141.365 561.29H101.193C90.6971 561.29 82.1888 569.798 82.1888 580.293L82.1888 750.765C82.1888 761.26 90.6971 769.769 101.193 769.769H141.365C151.86 769.769 160.368 761.26 160.368 750.765L160.368 580.293C160.368 569.798 151.86 561.29 141.365 561.29Z" fill="black"/>
<path d="M572.315 204.47L153.352 204.47C148.37 204.47 144.332 208.508 144.332 213.49C144.332 218.472 148.37 222.511 153.352 222.511L572.315 222.511C577.297 222.511 581.336 218.473 581.336 213.491C581.336 208.509 577.297 204.47 572.315 204.47Z" fill="black"/>
<path d="M572.315 230.53L153.352 230.53C148.37 230.53 144.332 234.568 144.332 239.55C144.332 244.532 148.37 248.571 153.352 248.571L572.315 248.571C577.297 248.571 581.336 244.532 581.336 239.55C581.336 234.568 577.297 230.53 572.315 230.53Z" fill="black"/>
<path d="M572.315 256.59L153.352 256.59C148.37 256.59 144.332 260.628 144.332 265.61C144.332 270.592 148.37 274.631 153.352 274.631L572.315 274.631C577.297 274.631 581.336 270.592 581.336 265.61C581.336 260.628 577.297 256.59 572.315 256.59Z" fill="black"/>
</svg>
