<svg width="728" height="798" viewBox="0 0 728 798" fill="none" xmlns="http://www.w3.org/2000/svg">
<path d="M59.176 589.354H19.0037C8.50823 589.354 -4.23434e-10 597.862 -4.0121e-10 608.358L0 778.829C0 789.325 8.50823 797.833 19.0037 797.833H59.176C69.6714 797.833 78.1796 789.325 78.1796 778.829L78.1796 608.358C78.1796 597.862 69.6714 589.354 59.176 589.354Z" fill="black"/>
<path d="M603.072 163.419C603.072 173.912 594.566 182.419 584.072 182.419L144.446 182.419C133.952 182.419 125.445 173.912 125.445 163.419V19.0023C125.445 8.50868 116.939 0.00195313 106.445 0.00195313L19.845 0.00195313C9.35144 0.00195313 0.844727 8.50869 0.844727 19.0023V403.246C0.844727 413.739 9.35144 422.246 19.845 422.246H106.445C116.939 422.246 125.445 413.739 125.445 403.246V309.865C125.445 299.371 133.952 290.864 144.446 290.864L584.072 290.864C594.566 290.864 603.072 299.371 603.072 309.865V403.244C603.072 413.737 611.579 422.244 622.073 422.244H708.672C719.165 422.244 727.672 413.737 727.672 403.244V19.0003C727.672 8.50673 719.165 0 708.672 0L622.073 0C611.579 0 603.072 8.50673 603.072 19.0003V163.419ZM187.739 396.328C187.739 406.821 196.246 415.328 206.74 415.328L521.772 415.328C532.266 415.328 540.772 406.821 540.772 396.328V325.884C540.772 315.391 532.266 306.884 521.772 306.884L206.74 306.883C196.246 306.883 187.739 315.39 187.739 325.883V396.328Z" fill="#FBFF00"/>
<path d="M146.336 325.708L146.336 395.95C146.336 406.445 154.844 414.953 165.34 414.953L564.337 414.953C574.832 414.953 583.34 406.445 583.34 395.95L583.34 325.708C583.34 315.213 574.832 306.705 564.337 306.705L165.34 306.705C154.844 306.705 146.336 315.213 146.336 325.708Z" fill="black"/>
<path d="M574.32 148.341L155.357 148.341C150.375 148.341 146.336 152.38 146.336 157.362C146.336 162.344 150.375 166.382 155.357 166.382L574.32 166.382C579.302 166.382 583.34 162.344 583.34 157.362C583.34 152.38 579.302 148.341 574.32 148.341Z" fill="black"/>
<path d="M626.479 589.354H586.307C575.812 589.354 567.303 597.862 567.303 608.358L567.303 778.829C567.303 789.325 575.812 797.833 586.307 797.833H626.479C636.975 797.833 645.483 789.325 645.483 778.829L645.483 608.358C645.483 597.862 636.975 589.354 626.479 589.354Z" fill="black"/>
<path d="M141.365 589.354H101.192C90.6969 589.354 82.1887 597.862 82.1887 608.358L82.1887 778.829C82.1887 789.325 90.6969 797.833 101.192 797.833H141.365C151.86 797.833 160.368 789.325 160.368 778.829L160.368 608.358C160.368 597.862 151.86 589.354 141.365 589.354Z" fill="black"/>
<path d="M708.668 589.354H668.496C658 589.354 649.492 597.862 649.492 608.358L649.492 778.829C649.492 789.325 658 797.833 668.496 797.833H708.668C719.164 797.833 727.672 789.325 727.672 778.829L727.672 608.358C727.672 597.862 719.164 589.354 708.668 589.354Z" fill="black"/>
<path d="M535.23 778.829C535.23 789.325 526.722 797.833 516.227 797.833H213.451C202.955 797.833 194.447 789.325 194.447 778.829V760.708C194.447 750.212 202.955 741.704 213.451 741.704H516.227C526.722 741.704 535.23 750.212 535.23 760.708V778.829ZM318.732 454.083C318.732 464.579 327.24 473.087 337.736 473.087H391.94C402.436 473.087 410.944 464.579 410.944 454.083V449.994C410.944 439.498 419.452 430.99 429.948 430.99H708.668C719.163 430.99 727.672 439.498 727.672 449.994V536.272C727.672 546.767 719.163 555.275 708.668 555.275H552.27C542.859 555.275 535.23 562.904 535.23 572.315V589.354C535.23 589.354 535.23 589.354 535.23 589.354C535.229 589.354 535.229 589.355 535.229 589.355V708.668C535.229 719.164 526.721 727.672 516.226 727.672H429.948C419.452 727.672 410.944 719.164 410.944 708.668V608.358C410.944 597.863 402.436 589.354 391.94 589.354H337.736C327.24 589.354 318.732 597.863 318.732 608.358V708.668C318.732 719.164 310.224 727.672 299.729 727.672H213.451C202.955 727.672 194.447 719.164 194.447 708.668V574.279C194.447 563.784 185.939 555.275 175.443 555.275H21.0083C10.5129 555.275 2.00464 546.767 2.00464 536.272V449.994C2.00464 439.498 10.5129 430.99 21.0083 430.99H299.729C310.224 430.99 318.732 439.498 318.732 449.994V454.083ZM318.732 536.272C318.732 546.767 327.24 555.275 337.736 555.275H391.94C402.436 555.275 410.944 546.767 410.944 536.272V526.169C410.944 515.673 402.436 507.165 391.94 507.165H337.736C327.24 507.165 318.732 515.673 318.732 526.169V536.272Z" fill="black"/>
</svg>
