<svg width="701" height="86" viewBox="0 0 701 86" fill="none" xmlns="http://www.w3.org/2000/svg">
<path d="M0 84.0329V1.33209H26.9749C35.9295 1.33209 43.7001 3.10821 50.2865 6.66046C56.873 10.2127 61.9793 15.0971 65.6056 21.3135C69.2318 27.5299 71.045 34.6344 71.045 42.627C71.045 50.6195 69.2318 57.761 65.6056 64.0515C61.9793 70.2679 56.873 75.1522 50.2865 78.7045C43.7001 82.2567 35.9295 84.0329 26.9749 84.0329H0ZM17.2062 69.0468H27.4189C32.8213 69.0468 37.4836 67.9737 41.4059 65.8276C45.3282 63.6074 48.3624 60.5362 50.5085 56.6139C52.7287 52.6177 53.8388 47.9553 53.8388 42.627C53.8388 37.2246 52.7287 32.5623 50.5085 28.64C48.3624 24.7177 45.3282 21.6835 41.4059 19.5374C37.4836 17.3912 32.8213 16.3181 27.4189 16.3181H17.2062V69.0468Z" fill="black"/>
<path d="M82.0633 84.0329V1.33209H95.2733L139.676 59.8332L132.572 61.4983V1.33209H149.778V84.0329H136.457L92.8311 25.0877L99.2695 23.4226V84.0329H82.0633Z" fill="black"/>
<path d="M184.399 84.0329V1.33209H216.036C221.734 1.33209 226.767 2.33116 231.133 4.3293C235.573 6.32744 239.051 9.28765 241.568 13.2099C244.084 17.1322 245.342 21.9795 245.342 27.7519C245.342 33.3763 244.047 38.1867 241.457 42.1829C238.866 46.1052 235.388 49.0654 231.022 51.0636L249.893 84.0329H230.578L210.152 47.5113L221.253 54.0608H201.605V84.0329H184.399ZM201.605 39.0747H216.147C218.589 39.0747 220.698 38.5937 222.474 37.6316C224.25 36.6696 225.619 35.3375 226.582 33.6353C227.618 31.9332 228.136 29.9721 228.136 27.7519C228.136 25.4578 227.618 23.4596 226.582 21.7575C225.619 20.0554 224.25 18.7233 222.474 17.7612C220.698 16.7992 218.589 16.3181 216.147 16.3181H201.605V39.0747Z" fill="black"/>
<path d="M299.846 85.365C293.629 85.365 287.857 84.2919 282.529 82.1457C277.2 79.9996 272.538 77.0024 268.542 73.1541C264.619 69.2318 261.548 64.6805 259.328 59.5001C257.108 54.3198 255.998 48.6954 255.998 42.627C255.998 36.5586 257.071 30.9342 259.217 25.7538C261.437 20.5734 264.508 16.0591 268.431 12.2109C272.427 8.36258 277.089 5.36537 282.418 3.21922C287.746 1.07307 293.555 0 299.846 0C306.136 0 311.946 1.07307 317.274 3.21922C322.602 5.36537 327.228 8.36258 331.15 12.2109C335.146 16.0591 338.217 20.5734 340.364 25.7538C342.584 30.9342 343.694 36.5586 343.694 42.627C343.694 48.6954 342.584 54.3198 340.364 59.5001C338.143 64.6805 335.035 69.2318 331.039 73.1541C327.117 77.0024 322.491 79.9996 317.163 82.1457C311.835 84.2919 306.062 85.365 299.846 85.365ZM299.846 69.8239C303.62 69.8239 307.098 69.1578 310.281 67.8257C313.537 66.4936 316.386 64.6435 318.828 62.2753C321.27 59.8332 323.157 56.947 324.49 53.6167C325.822 50.2865 326.488 46.6233 326.488 42.627C326.488 38.6307 325.822 35.0044 324.49 31.7482C323.157 28.418 321.27 25.5318 318.828 23.0896C316.386 20.6474 313.537 18.7973 310.281 17.5392C307.098 16.2071 303.62 15.5411 299.846 15.5411C296.072 15.5411 292.556 16.2071 289.3 17.5392C286.118 18.7973 283.306 20.6474 280.863 23.0896C278.421 25.5318 276.534 28.418 275.202 31.7482C273.87 35.0044 273.204 38.6307 273.204 42.627C273.204 46.6233 273.87 50.2865 275.202 53.6167C276.534 56.947 278.421 59.8332 280.863 62.2753C283.306 64.6435 286.118 66.4936 289.3 67.8257C292.556 69.1578 296.072 69.8239 299.846 69.8239Z" fill="black"/>
<path d="M355.897 84.0329V1.33209H390.864C396.563 1.33209 401.447 2.29416 405.517 4.21829C409.588 6.14243 412.696 8.91762 414.842 12.5439C416.988 16.0961 418.061 20.4254 418.061 25.5318C418.061 29.158 417.062 32.6363 415.064 35.9665C413.066 39.2227 409.773 41.9609 405.184 44.1811V35.7445C409.551 37.4466 412.918 39.4818 415.286 41.8499C417.654 44.2181 419.282 46.8083 420.17 49.6205C421.058 52.3587 421.502 55.2449 421.502 58.2791C421.502 66.4196 418.801 72.7471 413.399 77.2614C407.997 81.7757 400.485 84.0329 390.864 84.0329H355.897ZM373.103 69.0468H392.862C396.341 69.0468 399.116 68.0477 401.188 66.0496C403.26 64.0515 404.296 61.4613 404.296 58.2791C404.296 55.0228 403.26 52.3957 401.188 50.3975C399.116 48.3994 396.341 47.4003 392.862 47.4003H373.103V69.0468ZM373.103 32.4143H392.085C394.75 32.4143 396.859 31.6742 398.413 30.1941C400.041 28.64 400.855 26.6049 400.855 24.0887C400.855 21.5725 400.041 19.5744 398.413 18.0943C396.859 16.5402 394.75 15.7631 392.085 15.7631H373.103V32.4143Z" fill="black"/>
<path d="M473.946 85.365C467.729 85.365 461.957 84.2919 456.629 82.1457C451.3 79.9996 446.638 77.0024 442.642 73.1541C438.719 69.2318 435.648 64.6805 433.428 59.5001C431.208 54.3198 430.098 48.6954 430.098 42.627C430.098 36.5586 431.171 30.9342 433.317 25.7538C435.537 20.5734 438.608 16.0591 442.531 12.2109C446.527 8.36258 451.189 5.36537 456.518 3.21922C461.846 1.07307 467.655 0 473.946 0C480.236 0 486.046 1.07307 491.374 3.21922C496.702 5.36537 501.328 8.36258 505.25 12.2109C509.246 16.0591 512.317 20.5734 514.464 25.7538C516.684 30.9342 517.794 36.5586 517.794 42.627C517.794 48.6954 516.684 54.3198 514.464 59.5001C512.243 64.6805 509.135 69.2318 505.139 73.1541C501.217 77.0024 496.591 79.9996 491.263 82.1457C485.935 84.2919 480.162 85.365 473.946 85.365ZM473.946 69.8239C477.72 69.8239 481.198 69.1578 484.381 67.8257C487.637 66.4936 490.486 64.6435 492.928 62.2753C495.37 59.8332 497.257 56.947 498.59 53.6167C499.922 50.2865 500.588 46.6233 500.588 42.627C500.588 38.6307 499.922 35.0044 498.59 31.7482C497.257 28.418 495.37 25.5318 492.928 23.0896C490.486 20.6474 487.637 18.7973 484.381 17.5392C481.198 16.2071 477.72 15.5411 473.946 15.5411C470.172 15.5411 466.656 16.2071 463.4 17.5392C460.218 18.7973 457.406 20.6474 454.964 23.0896C452.521 25.5318 450.634 28.418 449.302 31.7482C447.97 35.0044 447.304 38.6307 447.304 42.627C447.304 46.6233 447.97 50.2865 449.302 53.6167C450.634 56.947 452.521 59.8332 454.964 62.2753C457.406 64.6435 460.218 66.4936 463.4 67.8257C466.656 69.1578 470.172 69.8239 473.946 69.8239Z" fill="black"/>
<path d="M569.294 85.365C563.373 85.365 557.86 84.2919 552.753 82.1457C547.721 79.9996 543.318 77.0024 539.544 73.1541C535.769 69.3058 532.809 64.7915 530.663 59.6112C528.591 54.4308 527.555 48.7694 527.555 42.627C527.555 36.4845 528.591 30.8231 530.663 25.6428C532.735 20.3884 535.658 15.8741 539.433 12.0998C543.207 8.25157 547.61 5.29137 552.642 3.21922C557.749 1.07307 563.299 0 569.294 0C575.288 0 580.653 0.99907 585.39 2.99721C590.2 4.99535 594.27 7.65953 597.601 10.9898C600.931 14.32 603.299 18.0203 604.705 22.0905L589.497 29.4171C588.091 25.4208 585.612 22.1275 582.06 19.5374C578.581 16.8732 574.326 15.5411 569.294 15.5411C564.409 15.5411 560.117 16.6882 556.417 18.9823C552.716 21.2765 549.83 24.4587 547.758 28.529C545.76 32.5253 544.761 37.2246 544.761 42.627C544.761 48.0294 545.76 52.7657 547.758 56.836C549.83 60.9062 552.716 64.0885 556.417 66.3826C560.117 68.6768 564.409 69.8239 569.294 69.8239C574.326 69.8239 578.581 68.5288 582.06 65.9386C585.612 63.2744 588.091 59.9442 589.497 55.9479L604.705 63.2744C603.299 67.3447 600.931 71.045 597.601 74.3752C594.27 77.7054 590.2 80.3696 585.39 82.3677C580.653 84.3659 575.288 85.365 569.294 85.365Z" fill="black"/>
<path d="M657.152 85.365C650.935 85.365 645.163 84.2919 639.835 82.1457C634.506 79.9996 629.844 77.0024 625.848 73.1541C621.925 69.2318 618.854 64.6805 616.634 59.5001C614.414 54.3198 613.304 48.6954 613.304 42.627C613.304 36.5586 614.377 30.9342 616.523 25.7538C618.743 20.5734 621.814 16.0591 625.737 12.2109C629.733 8.36258 634.395 5.36537 639.724 3.21922C645.052 1.07307 650.862 0 657.152 0C663.442 0 669.252 1.07307 674.58 3.21922C679.909 5.36537 684.534 8.36258 688.456 12.2109C692.452 16.0591 695.524 20.5734 697.67 25.7538C699.89 30.9342 701 36.5586 701 42.627C701 48.6954 699.89 54.3198 697.67 59.5001C695.45 64.6805 692.341 69.2318 688.345 73.1541C684.423 77.0024 679.798 79.9996 674.469 82.1457C669.141 84.2919 663.368 85.365 657.152 85.365ZM657.152 69.8239C660.926 69.8239 664.404 69.1578 667.587 67.8257C670.843 66.4936 673.692 64.6435 676.134 62.2753C678.576 59.8332 680.464 56.947 681.796 53.6167C683.128 50.2865 683.794 46.6233 683.794 42.627C683.794 38.6307 683.128 35.0044 681.796 31.7482C680.464 28.418 678.576 25.5318 676.134 23.0896C673.692 20.6474 670.843 18.7973 667.587 17.5392C664.404 16.2071 660.926 15.5411 657.152 15.5411C653.378 15.5411 649.862 16.2071 646.606 17.5392C643.424 18.7973 640.612 20.6474 638.17 23.0896C635.727 25.5318 633.84 28.418 632.508 31.7482C631.176 35.0044 630.51 38.6307 630.51 42.627C630.51 46.6233 631.176 50.2865 632.508 53.6167C633.84 56.947 635.727 59.8332 638.17 62.2753C640.612 64.6435 643.424 66.4936 646.606 67.8257C649.862 69.1578 653.378 69.8239 657.152 69.8239Z" fill="black"/>
</svg>
